<svg fill="none" height="495" viewBox="0 0 945 495" width="945" xmlns="http://www.w3.org/2000/svg" xmlns:xlink="http://www.w3.org/1999/xlink"><clipPath id="clip0_3908_490"><path d="M0 0H945V495H0Z"/></clipPath><g clip-path="url(#clip0_3908_490)"><path d="M0 0H945V495H0Z" fill="#ff7059"/><path d="M6.52709 470.25C5.69803 467.156 7.9756 464.39 10.4997 462.964 47.6096 442.002 90.6628 421.598 90.6628 421.598 102.947 418.306 122.949 436.334 122.949 436.334L131.46 468.097C90.7538 479.004 49.7532 480.549 10.7241 474.073 8.69461 473.735 7.05868 472.234 6.52709 470.25Z" fill="#000000"/><path d="M377.063 349.024 317.834 421.347 171.83 421.347 109.5 400C90.3002 391.601 88.5 334.46 88.5 313.5 88.5 288.704 69.6934 270 94.5 270 108.376 270 74.4512 259.718 79.5364 246.799L103.137 186.787C109.319 171.054 120.522 157.808 134.995 149.083L209.795 186.787 273.739 195.085 309.663 164.19C325.038 173.448 354.223 171.814 360.123 188.754L390.178 275.017C398.979 300.28 394.013 328.314 377.063 349.002" fill="#3d3d3d"/><path d="M342.753 392.791 340.319 393.877 342.275 391.487 342.753 392.791Z" fill="#ffffff"/><path d="M284.938 83.9293 284.924 120.318C284.924 141.415 267.819 158.519 246.722 158.519L211.031 158.519C189.935 158.519 172.83 141.415 172.83 120.318L172.83 82.9438C172.83 56.1719 186.389 31.2055 208.859 16.6399L214.455 13.0075C222.54 7.77109 232.912 7.67032 241.098 12.7557L247.622 16.8198C270.826 31.2487 284.931 56.6178 284.931 83.9363L284.938 83.9293Z" fill="#000000"/><path d="M268.991 160.144 191.157 160.144 200.306 77.0591 259.834 77.0591 268.991 160.144Z" fill="#f4c9b8"/><path d="M230.055 120.879C209.483 120.879 193.976 110.621 193.184 90.8265L191.926 59.4511C191.055 37.7934 208.383 19.7609 230.055 19.7609 251.727 19.7609 269.055 37.7934 268.185 59.4511L266.926 90.8265C266.135 110.614 250.627 120.879 230.055 120.879Z" fill="#f4c9b8"/><path d="M268.221 57.8833C268.221 58.4084 268.206 58.9334 268.185 59.4585L268.106 61.3143 266.926 90.8265C266.847 92.6823 266.653 94.4518 266.329 96.1421L221.841 79.2891C213.663 76.189 204.434 78.1742 198.241 84.3673L193.12 89.4887 191.919 59.4655C191.897 58.8325 191.883 58.214 191.883 57.5883 192.055 36.7721 209.009 19.7681 230.048 19.7681 251.087 19.7681 268.206 36.9375 268.206 57.8903L268.221 57.8833Z" fill="#cea193"/><path d="M201.447 69.3345C201.447 64.6232 197.627 60.7965 192.909 60.7965 188.19 60.7965 184.371 64.616 184.371 69.3345 184.371 74.0531 188.19 81.7493 192.909 81.7493 197.627 81.7493 201.447 74.0459 201.447 69.3345Z" fill="#cea193"/><path d="M275.728 69.3345C275.728 64.6232 271.909 60.7965 267.19 60.7965 262.472 60.7965 258.652 64.616 258.652 69.3345 258.652 74.053 262.472 81.7492 267.19 81.7492 271.909 81.7492 275.728 74.0458 275.728 69.3345Z" fill="#cea193"/><path d="M228.242 90.2806C227.882 90.2806 227.537 90.108 227.328 89.7844 226.998 89.2809 227.141 88.6047 227.645 88.2738 228.242 87.8854 242.304 78.7861 252.41 81.0015 253 81.131 253.374 81.7137 253.244 82.3035 253.115 82.8933 252.532 83.2674 251.942 83.138 242.736 81.1168 228.975 90.0145 228.839 90.1008 228.652 90.2231 228.45 90.2806 228.242 90.2806Z" fill="#000000"/><path d="M241.72 65.3502C242.511 68.2921 242.712 70.7953 241.382 71.1477 240.058 71.5002 238.979 69.2344 238.188 66.2926 237.397 63.3507 240.929 62.4084 241.713 65.3502L241.72 65.3502Z" fill="#000000"/><path d="M214.415 65.3502C215.206 68.2921 215.407 70.7953 214.077 71.1477 212.746 71.5002 211.674 69.2344 210.883 66.2926 210.092 63.3507 213.624 62.4084 214.408 65.3502L214.415 65.3502Z" fill="#000000"/><path d="M209.62 67.9532C208.174 67.9532 206.728 67.9386 205.282 67.9026 203.779 67.8667 202.585 66.6152 202.621 65.1119 202.657 63.6086 203.908 62.4004 205.412 62.4507 225.76 62.9255 247.469 59.7246 247.684 59.6958 249.173 59.4728 250.562 60.5014 250.784 61.9903 251.007 63.4792 249.979 64.8675 248.49 65.0905 248.281 65.1192 229.069 67.9532 209.62 67.9532Z" fill="#000000"/><path d="M230.056 120.878C227.704 120.878 225.423 120.741 223.222 120.475 221.82 120.302 221.237 122.208 222.503 122.841 230.264 126.711 245.384 131.041 264.661 120.885L262.942 105.312C256.957 115.598 244.808 120.885 230.049 120.885L230.056 120.878Z" fill="#cea193"/><path d="M347.365 306.448 112.755 306.448C90.4069 306.448 72.9128 276.707 76.8689 254.718L88.0331 205.597C94.0536 172.186 120.509 146.227 154.028 140.832L190.999 134.891C190.999 134.891 205.73 154.865 230.064 154.865 254.397 154.865 269.128 134.891 269.128 134.891L306.099 140.832C339.611 146.219 366.074 172.186 372.094 205.597L382.661 264.24C386.624 286.229 369.721 306.448 347.372 306.448L347.365 306.448Z" fill="#3d3d3d"/><path d="M268.756 154.139 252.831 161.655C250.874 162.576 251.788 165.532 253.924 165.194L335.937 152.088C327.025 146.485 316.934 142.58 306.094 140.839L276.222 136.034 268.756 154.139Z" fill="#000000"/><path d="M247.622 16.8125 241.098 12.7484C232.919 7.66302 222.547 7.7566 214.455 13.0002L208.859 16.6398C186.381 31.2126 172.83 56.1646 172.83 82.9437L172.895 128.626C172.895 139.537 179.188 149.478 189.057 154.139L216.836 167.259C224.46 170.862 233.301 170.862 240.925 167.259L268.761 154.132C278.637 149.471 284.938 139.53 284.938 128.611L284.938 83.9218C284.938 56.6033 270.84 31.227 247.629 16.8053L247.622 16.8125ZM213.534 143.882 185.144 120.714C182.26 118.354 180.577 114.822 180.577 111.089L180.577 81.0447C180.577 77.7504 181.893 74.5929 184.216 72.2552L198.242 58.2361C204.428 52.0502 213.671 50.0652 221.842 53.1653L258.375 66.9972C266.618 70.1261 272.085 78.0167 272.085 86.8352L272.085 112.787C272.085 116.491 270.43 120.001 267.582 122.354L241.766 143.745C233.588 150.521 221.763 150.578 213.534 143.875L213.534 143.882Z" fill="#3d3d3d"/><path d="M325.302 433.006 104.324 433.006 130.131 358.043 299.495 358.043 325.302 433.006Z" fill="#000000"/><path d="M422.284 383.026C427.53 408.637 410.128 433.38 384.251 437.101L144.426 471.59C127.634 474.004 111.868 462.916 108.463 446.296L105.98 434.174C102.428 416.832 113.606 399.894 130.948 396.341L368.67 347.643C393.246 342.609 417.249 358.45 422.284 383.026Z" fill="#3d3d3d"/><path d="M449.625 470.25C450.454 467.156 447.9 464.75 445.238 463.246 408.128 442.283 365.49 421.598 365.49 421.598 353.206 418.306 333.203 436.334 333.203 436.334L324.692 468.097C365.399 479.004 406.399 480.549 445.428 474.073 447.458 473.735 449.094 472.234 449.625 470.25Z" fill="#000000"/><path d="M116.144 461.422C112.387 457.294 109.664 452.137 108.468 446.296L108.352 445.728C108.33 445.617 108.309 445.507 108.286 445.396L107.64 442.241 187.268 453.584C189.521 453.905 189.383 457.203 187.111 457.333L116.144 461.422Z" fill="#000000"/><path d="M136 164 183 179C179.34 182.852 156.241 191.087 129.222 203.669L136 285 114.5 349C74 357 33 342 33 297 33 254.907 86.1026 223.75 129.222 203.669L128.5 195 136 164Z" fill="#3d3d3d"/><path d="M33.8628 383.026C28.6162 408.637 46.0185 433.38 71.8956 437.101L311.72 471.59C328.513 474.004 344.279 462.916 347.683 446.296L350.167 434.174C353.719 416.832 342.54 399.894 325.198 396.341L87.4767 347.643C62.901 342.609 38.8972 358.45 33.8628 383.026Z" fill="#3d3d3d"/><path clip-rule="evenodd" d="M241.332 263.829C247.919 263.099 252.667 257.167 251.937 250.58L250.45 237.155C249.72 230.568 243.789 225.82 237.202 226.55L205.834 230.025C200.291 230.639 195.15 227.297 192.61 222.332 179.377 196.473 151.147 180.177 120.562 183.566 81.0394 187.944 52.5495 223.533 56.9281 263.056 61.3067 302.579 96.8957 331.069 136.418 326.69 165.538 323.464 188.669 303.295 197.077 277.093 198.689 272.069 202.841 268.093 208.085 267.512L241.332 263.829Z" fill="#f8f8f8" fill-rule="evenodd"/><path clip-rule="evenodd" d="M160.861 229.516C164.078 232.195 167.123 234.731 170 237 181.323 245.928 197.103 246.416 212.217 246.883 227.135 247.344 241.404 247.785 250.098 256.302 248.283 257.975 245.936 259.105 243.294 259.398L205.147 263.624C199.835 264.212 195.665 268.287 194.005 273.367 186.224 297.18 164.425 315.64 137.013 318.677 100.125 322.763 67.041 297.373 63.1184 261.966 59.9014 232.929 77.2968 206.171 104.007 195.23 127.019 201.329 145.82 216.989 160.861 229.516ZM252.642 234.794 252.214 230.931C252.024 229.218 251.482 227.629 250.669 226.229L252.642 234.794Z" fill="#a3f7ca" fill-rule="evenodd"/><path d="M214.898 204.484C212.173 201.056 207.712 199.494 203.439 200.475L188.572 203.894C182.337 205.323 178.509 211.613 180.098 217.804L182.734 228.089C183.696 231.849 185.438 235.35 187.851 238.387L198.296 251.53C199.635 253.214 201.591 254.296 203.729 254.541L213.713 255.683C216.217 255.969 218.386 253.982 218.324 251.477L217.381 211.311C217.324 208.829 216.453 206.441 214.911 204.501" fill="#f4c9b8"/><path d="M276.413 322C290 390 361.5 478.435 452.5 427 560.288 366.077 412.5 203.38 582.5 194 612.543 192.342 663.411 202.723 681.514 203.38" stroke="#a3f7ca" stroke-width="34"/><path clip-rule="evenodd" d="M255.695 286.27C253.993 288.812 253 291.87 253 295.159 253 303.996 260.163 311.159 269 311.159 277.837 311.159 285 303.996 285 295.159 285 291.823 283.979 288.724 282.231 286.16L270.327 264.052C269.559 262.625 267.502 262.656 266.777 264.106L255.695 286.27Z" fill="#a3f7ca" fill-rule="evenodd"/><rect fill="#f8f8f8" height="16.6829" rx="8.34146" transform="matrix(.11011249 .99391913 -.99391913 .11011249 439.180125 -55.496141)" width="51.1941" x="250.582" y="217.513"/><rect fill="#f8f8f8" height="16.6829" rx="8.34146" transform="matrix(-.95122357 .30850238 -.30850238 -.95122357 691.756215 544.366403)" width="49.0857" x="302.844" y="326.869"/><path d="M236.725 240.893 235 226.513 228.019 227.513 232.845 241.772C233.616 244.05 237.011 243.28 236.725 240.893Z" fill="#e3e3e3"/><path d="M702.949 395H772.051L776 468H699L702.949 395Z" fill="#bcbcbc"/><rect fill="#000000" height="258.267" rx="22.7374" width="352.733" x="561" y="141"/><rect fill="#ffffff" height="191.533" rx="18.1899" width="328.467" x="573.133" y="153.133"/><path d="M573.364 171.554C573.364 161.508 581.508 153.364 591.554 153.364H883.64C893.686 153.364 901.83 161.508 901.83 171.554V326.707C901.83 336.753 893.686 344.897 883.64 344.897H591.554C581.508 344.897 573.364 336.753 573.364 326.707V171.554Z" fill="#a3f7ca"/><path d="M561 356.8H913.733V379.03C913.733 391.588 903.553 401.767 890.996 401.767H583.737C571.18 401.767 561 391.588 561 379.03V356.8Z" fill="#e3e3e3"/><circle cx="736.876" cy="377.705" fill="#bcbcbc" r="11.3308"/><path d="M301.648 338.106 259.973 356.217C257.073 357.478 256.462 361.333 258.841 363.427L267.916 371.389C270.867 373.981 274.654 375.416 278.575 375.442L314.552 375.706C315.632 375.711 316.71 375.491 317.706 375.058 321.643 373.348 323.446 368.773 321.735 364.837L311.865 342.125C310.155 338.189 305.58 336.386 301.644 338.096" fill="#f4c9b8"/><rect fill="#e3e3e3" height="8" rx="4" width="121" x="679" y="465"/><g fill="#0ead69"><path d="M682.204 209.974H692.5049V219.37919H682.204Z"/><path d="M671.903 219.379H682.2039V228.78419H671.903Z"/><path d="M661.602 228.784H671.9029V238.18919H661.602Z"/><path d="M651.301 238.19H661.6019V247.59519H651.301Z"/><path d="M641 247.595H651.3009V257.00019H641Z"/><path d="M0 0H10.3009V9.40519H0Z" transform="matrix(-1 0 0 1 661.602 219.379)"/><path d="M0 0H10.3009V9.40519H0Z" transform="matrix(-1 0 0 1 682.204 238.19)"/><path d="M0 0H10.3009V9.40519H0Z" transform="matrix(-1 0 0 1 692.505 247.595)"/><path d="M0 0H10.3009V9.40519H0Z" transform="matrix(-1 0 0 1 651.301 209.974)"/><path d="M824.749 209H835.0499V218.40519H824.749Z"/><path d="M814.448 218.405H824.7489V227.81019H814.448Z"/><path d="M804.147 227.81H814.4479V237.21519H804.147Z"/><path d="M793.846 237.216H804.1469V246.62119H793.846Z"/><path d="M783.545 246.621H793.8459V256.02619H783.545Z"/><path d="M0 0H10.3009V9.40519H0Z" transform="matrix(-1 0 0 1 804.147 218.405)"/><path d="M0 0H10.3009V9.40519H0Z" transform="matrix(-1 0 0 1 824.749 237.216)"/><path d="M0 0H10.3009V9.40519H0Z" transform="matrix(-1 0 0 1 835.05 246.621)"/><path d="M0 0H10.3009V9.40519H0Z" transform="matrix(-1 0 0 1 793.846 209)"/></g><path clip-rule="evenodd" d="M120.211 269.322C122.487 269.422 124.457 270.84 125.688 272.756 129.781 279.122 136.798 283.471 144.934 283.83 158.246 284.417 169.514 274.101 170.102 260.789 170.689 247.476 160.373 236.208 147.061 235.621 138.925 235.262 131.552 238.976 126.915 244.957 125.519 246.757 123.432 247.996 121.157 247.896L119.996 247.844C117.237 247.723 114.902 249.86 114.78 252.619L114.276 264.055C114.154 266.814 116.292 269.149 119.05 269.27L120.211 269.322Z" fill="#ffffff" fill-rule="evenodd"/><circle cx="141.813" cy="248.136" fill="#e3e3e3" r="6.70213" transform="matrix(-.04407274 .99902832 -.99902832 -.04407274 395.957979 117.396829)"/><circle cx="140.749" cy="272.24" fill="#e3e3e3" r="6.70213" transform="matrix(-.04407274 .99902832 -.99902832 -.04407274 418.927665 143.626124)"/><path clip-rule="evenodd" d="M89.4478 246.045C89.138 245.626 89.2899 245.03 89.7089 244.72V244.72C92.0717 242.973 92.5708 239.641 90.8236 237.278 89.0765 234.915 85.7447 234.416 83.3819 236.164 82.752 236.629 82.2546 237.208 81.8968 237.85 81.2318 239.045 79.8144 240.093 78.4775 240.379 77.7583 240.532 77.0595 240.838 76.4297 241.304 74.0669 243.051 73.5678 246.383 75.3149 248.746 76.5607 250.431 78.612 251.168 80.5434 250.819 81.5362 250.64 82.6476 250.832 83.2474 251.643L97.916 271.481C98.5443 272.33 98.3582 273.511 97.8353 274.429 96.825 276.204 96.8885 278.481 98.1806 280.229 99.9278 282.591 103.26 283.09 105.622 281.343 106.252 280.878 106.75 280.299 107.107 279.657 107.772 278.462 109.19 277.414 110.527 277.128 111.246 276.974 111.945 276.668 112.575 276.203 114.937 274.455 115.437 271.124 113.689 268.761 111.942 266.398 108.61 265.899 106.248 267.646V267.646C105.963 267.857 105.551 267.823 105.341 267.538L89.4478 246.045Z" fill="#ffffff" fill-rule="evenodd"/><path clip-rule="evenodd" d="M87.6176 271.885C87.2782 272.28 87.3864 272.886 87.7818 273.225V273.225C90.0115 275.139 90.2674 278.499 88.3533 280.728 86.4392 282.958 83.08 283.214 80.8502 281.3 80.2558 280.79 79.8017 280.177 79.4916 279.51 78.915 278.27 77.5775 277.122 76.2648 276.74 75.5587 276.534 74.884 276.178 74.2896 275.668 72.0599 273.754 71.804 270.395 73.7181 268.165 75.0829 266.575 77.1824 265.989 79.0833 266.477 80.0604 266.728 81.1829 266.617 81.84 265.851L97.9102 247.131C98.5986 246.329 98.4986 245.139 98.0438 244.185 97.1649 242.342 97.3936 240.075 98.8093 238.426 100.723 236.196 104.083 235.94 106.312 237.854 106.907 238.364 107.361 238.977 107.671 239.644 108.248 240.884 109.585 242.032 110.898 242.414 111.604 242.62 112.279 242.976 112.873 243.486 115.103 245.4 115.359 248.759 113.444 250.989 111.53 253.219 108.171 253.475 105.941 251.561V251.561C105.673 251.33 105.26 251.333 105.029 251.602L87.6176 271.885Z" fill="#ffffff" fill-rule="evenodd"/><circle cx="495" cy="271" fill="#84dba8" r="10"/><circle cx="478.5" cy="413.5" fill="#84dba8" r="5.5"/><circle cx="343.5" cy="423.5" fill="#84dba8" r="5.5"/><circle cx="117" cy="303" fill="#84dba8" r="10"/><circle cx="148.5" cy="298.5" fill="#84dba8" r="5.5"/><circle cx="488" cy="391" fill="#84dba8" r="10"/><circle cx="323" cy="406" fill="#84dba8" r="10"/><path d="M697 297H778V306H697Z" fill="#0ead69"/></g></svg>